<mxfile host="app.diagrams.net" modified="2023-05-18T01:42:40.053Z" agent="Mozilla/5.0 (Windows NT 10.0; Win64; x64) AppleWebKit/537.36 (KHTML, like Gecko) Chrome/113.0.0.0 Safari/537.36" etag="0vAx7evbCyYCmXyr8NHG" version="21.1.5" type="github" pages="2">
  <diagram name="第 1 页" id="sE8IsBrxFog_V5iNx-sw">
    <mxGraphModel dx="1877" dy="581" grid="1" gridSize="10" guides="1" tooltips="1" connect="1" arrows="1" fold="1" page="1" pageScale="1" pageWidth="827" pageHeight="1169" math="0" shadow="0">
      <root>
        <mxCell id="0" />
        <mxCell id="1" parent="0" />
        <mxCell id="02pTNCfCOh24YhehKAwe-5" value="" style="edgeStyle=orthogonalEdgeStyle;rounded=0;orthogonalLoop=1;jettySize=auto;html=1;" edge="1" parent="1" source="02pTNCfCOh24YhehKAwe-1" target="02pTNCfCOh24YhehKAwe-4">
          <mxGeometry relative="1" as="geometry" />
        </mxCell>
        <mxCell id="02pTNCfCOh24YhehKAwe-1" value="开始" style="strokeWidth=2;html=1;shape=mxgraph.flowchart.terminator;whiteSpace=wrap;" vertex="1" parent="1">
          <mxGeometry x="270" y="40" width="100" height="60" as="geometry" />
        </mxCell>
        <mxCell id="02pTNCfCOh24YhehKAwe-7" value="" style="edgeStyle=orthogonalEdgeStyle;rounded=0;orthogonalLoop=1;jettySize=auto;html=1;" edge="1" parent="1" source="02pTNCfCOh24YhehKAwe-4" target="02pTNCfCOh24YhehKAwe-6">
          <mxGeometry relative="1" as="geometry" />
        </mxCell>
        <mxCell id="02pTNCfCOh24YhehKAwe-4" value="添加卡：设置字段、“等级”" style="whiteSpace=wrap;html=1;strokeWidth=2;" vertex="1" parent="1">
          <mxGeometry x="260" y="180" width="120" height="60" as="geometry" />
        </mxCell>
        <mxCell id="02pTNCfCOh24YhehKAwe-9" value="" style="edgeStyle=orthogonalEdgeStyle;rounded=0;orthogonalLoop=1;jettySize=auto;html=1;" edge="1" parent="1" source="02pTNCfCOh24YhehKAwe-6" target="02pTNCfCOh24YhehKAwe-8">
          <mxGeometry relative="1" as="geometry">
            <Array as="points">
              <mxPoint x="520" y="360" />
            </Array>
          </mxGeometry>
        </mxCell>
        <mxCell id="02pTNCfCOh24YhehKAwe-10" value="&lt;p style=&quot;text-indent:21.0pt&quot; class=&quot;MsoNormal&quot;&gt;“高等级卡”：比较“高等级卡”、“低等级卡”、富能吧一般会员价格，以最低价结算。&lt;/p&gt;&lt;p style=&quot;text-indent:21.0pt&quot; class=&quot;MsoNormal&quot;&gt;&lt;/p&gt;&lt;span&gt;&lt;div style=&quot;text-align: center;&quot;&gt;“低等级卡”：比较“低等级卡”、富能吧一般会员价格，以最低价结算。&lt;/div&gt;&lt;/span&gt;" style="edgeLabel;html=1;align=left;verticalAlign=middle;resizable=0;points=[];" vertex="1" connectable="0" parent="02pTNCfCOh24YhehKAwe-9">
          <mxGeometry x="0.4691" y="2" relative="1" as="geometry">
            <mxPoint x="-377" y="48" as="offset" />
          </mxGeometry>
        </mxCell>
        <mxCell id="02pTNCfCOh24YhehKAwe-6" value="设置价格" style="whiteSpace=wrap;html=1;strokeWidth=2;" vertex="1" parent="1">
          <mxGeometry x="460" y="180" width="120" height="60" as="geometry" />
        </mxCell>
        <mxCell id="02pTNCfCOh24YhehKAwe-22" value="" style="edgeStyle=orthogonalEdgeStyle;rounded=0;orthogonalLoop=1;jettySize=auto;html=1;" edge="1" parent="1" source="02pTNCfCOh24YhehKAwe-8" target="02pTNCfCOh24YhehKAwe-21">
          <mxGeometry relative="1" as="geometry" />
        </mxCell>
        <mxCell id="02pTNCfCOh24YhehKAwe-8" value="结算" style="whiteSpace=wrap;html=1;strokeWidth=2;" vertex="1" parent="1">
          <mxGeometry x="80" y="330" width="120" height="60" as="geometry" />
        </mxCell>
        <mxCell id="02pTNCfCOh24YhehKAwe-21" value="结束" style="strokeWidth=2;html=1;shape=mxgraph.flowchart.terminator;whiteSpace=wrap;" vertex="1" parent="1">
          <mxGeometry x="90" y="470" width="100" height="60" as="geometry" />
        </mxCell>
      </root>
    </mxGraphModel>
  </diagram>
  <diagram id="dfuCHUlv7vO0gKGrvwug" name="第 2 页">
    <mxGraphModel dx="1050" dy="581" grid="1" gridSize="10" guides="1" tooltips="1" connect="1" arrows="1" fold="1" page="1" pageScale="1" pageWidth="827" pageHeight="1169" math="0" shadow="0">
      <root>
        <mxCell id="0" />
        <mxCell id="1" parent="0" />
      </root>
    </mxGraphModel>
  </diagram>
</mxfile>
